<svg width="120" height="120" viewBox="0 0 120 120" fill="none" xmlns="http://www.w3.org/2000/svg">
<path d="M60 7.5C53.18 7.51536 46.5246 9.59655 40.9109 13.4693C35.2971 17.3421 30.9883 22.8248 28.5523 29.195C26.1163 35.5651 25.6674 42.5238 27.2646 49.1542C28.8619 55.7846 32.4304 61.7755 37.5 66.3375V112.5L60 97.5L82.5 112.5V66.3375C87.5696 61.7755 91.1381 55.7846 92.7354 49.1542C94.3326 42.5238 93.8837 35.5651 91.4477 29.195C89.0117 22.8248 84.7029 17.3421 79.0891 13.4693C73.4754 9.59655 66.82 7.51536 60 7.5ZM75 98.475L64.1625 91.275L60 88.5L55.8375 91.275L45 98.475V71.4375C49.6519 73.7845 54.7896 75.0072 60 75.0072C65.2104 75.0072 70.3481 73.7845 75 71.4375V98.475ZM78.3375 60C74.0006 64.234 68.3322 66.8368 62.2944 67.3666C56.2567 67.8963 50.2216 66.3204 45.2137 62.9063C40.2057 59.4923 36.5335 54.4504 34.8204 48.6366C33.1073 42.8227 33.4588 36.5952 35.8153 31.0111C38.1718 25.427 42.388 20.8304 47.7484 18.0015C53.1087 15.1727 59.2828 14.286 65.2226 15.4918C71.1624 16.6977 76.5019 19.9218 80.3348 24.617C84.1676 29.3122 86.2576 35.189 86.25 41.25C86.2456 44.7447 85.5435 48.2033 84.1848 51.423C82.826 54.6427 80.8381 57.5587 78.3375 60Z" fill="#5A90F8"/>
</svg>
