<svg width="120" height="120" viewBox="0 0 120 120" fill="none" xmlns="http://www.w3.org/2000/svg">
<path d="M88.3453 58.125C88.6016 58.3985 88.8007 58.7204 88.9308 59.0719C89.0609 59.4234 89.1194 59.7973 89.103 60.1717C89.0865 60.5462 88.9954 60.9135 88.835 61.2523C88.6745 61.591 88.448 61.8942 88.1687 62.1441C87.8894 62.3941 87.563 62.5857 87.2086 62.7076C86.8542 62.8296 86.479 62.8795 86.105 62.8545C85.7311 62.8294 85.3659 62.7298 85.031 62.5616C84.6961 62.3934 84.3981 62.16 84.1547 61.875C82.7203 60.2719 79.5891 59.0625 76.875 59.0625C74.1609 59.0625 71.0297 60.2719 69.5953 61.875C69.0929 62.4111 68.4007 62.7293 67.6667 62.7615C66.9327 62.7938 66.2152 62.5375 65.6677 62.0476C65.1202 61.5577 64.7862 60.8729 64.737 60.1399C64.6879 59.4068 64.9275 58.6836 65.4047 58.125C67.9125 55.3125 72.525 53.4375 76.875 53.4375C81.225 53.4375 85.8375 55.3125 88.3453 58.125ZM50.4047 61.875C50.6481 62.16 50.9461 62.3934 51.281 62.5616C51.6159 62.7298 51.9811 62.8294 52.355 62.8545C52.729 62.8795 53.1042 62.8296 53.4586 62.7076C53.813 62.5857 54.1394 62.3941 54.4187 62.1441C54.698 61.8942 54.9245 61.591 55.085 61.2523C55.2454 60.9135 55.3365 60.5462 55.353 60.1717C55.3694 59.7973 55.3109 59.4234 55.1808 59.0719C55.0507 58.7204 54.8516 58.3985 54.5953 58.125C52.0875 55.3125 47.475 53.4375 43.125 53.4375C38.775 53.4375 34.1625 55.3125 31.6547 58.125C31.3984 58.3985 31.1993 58.7204 31.0692 59.0719C30.9391 59.4234 30.8806 59.7973 30.897 60.1717C30.9135 60.5462 31.0046 60.9135 31.165 61.2523C31.3255 61.591 31.552 61.8942 31.8313 62.1441C32.1106 62.3941 32.437 62.5857 32.7914 62.7076C33.1458 62.8296 33.521 62.8795 33.895 62.8545C34.2689 62.8294 34.6341 62.7298 34.969 62.5616C35.3039 62.3934 35.6019 62.16 35.8453 61.875C37.2797 60.2719 40.4109 59.0625 43.125 59.0625C45.8391 59.0625 48.9703 60.2719 50.4047 61.875ZM77.9344 76.6078C77.6534 76.368 77.3279 76.1859 76.9765 76.0719C76.6252 75.9579 76.2548 75.9142 75.8865 75.9434C75.5182 75.9725 75.1593 76.074 74.8303 76.2419C74.5012 76.4097 74.2085 76.6408 73.9688 76.9219C72.2577 78.9624 70.1203 80.6034 67.707 81.7292C65.2937 82.8551 62.663 83.4385 60 83.4385C57.337 83.4385 54.7063 82.8551 52.293 81.7292C49.8797 80.6034 47.7423 78.9624 46.0312 76.9219C45.7915 76.6409 45.4987 76.4098 45.1697 76.242C44.8406 76.0741 44.4817 75.9727 44.1135 75.9435C43.7452 75.9144 43.3749 75.958 43.0235 76.072C42.6721 76.186 42.3466 76.368 42.0656 76.6078C41.7846 76.8476 41.5536 77.1403 41.3857 77.4694C41.2179 77.7984 41.1164 78.1573 41.0873 78.5256C41.0581 78.8938 41.1018 79.2642 41.2158 79.6156C41.3297 79.9669 41.5118 80.2924 41.7516 80.5734C43.9912 83.2323 46.7848 85.3697 49.937 86.836C53.0891 88.3022 56.5235 89.0619 60 89.0619C63.4765 89.0619 66.9109 88.3022 70.063 86.836C73.2152 85.3697 76.0088 83.2323 78.2484 80.5734C78.4882 80.2924 78.6704 79.967 78.7844 79.6156C78.8984 79.2642 78.942 78.8938 78.9129 78.5256C78.8837 78.1573 78.7823 77.7984 78.6144 77.4694C78.4465 77.1403 78.2154 76.8475 77.9344 76.6078ZM104.062 22.5V48.6422C104.062 65.2594 99.5953 80.9203 91.4859 92.7328C83.1562 104.878 71.9719 111.562 60 111.562C48.0281 111.562 36.8438 104.878 28.5141 92.7375C20.4047 80.925 15.9375 65.2641 15.9375 48.6469V22.5C15.9416 21.4356 16.2045 20.3882 16.7035 19.4481C17.2026 18.508 17.9228 17.7033 18.8022 17.1036C19.6815 16.5038 20.6935 16.127 21.7509 16.0055C22.8083 15.884 23.8795 16.0215 24.8719 16.4062C31.5234 18.9656 44.9344 23.2969 60 23.2969C75.0656 23.2969 88.4766 18.9656 95.1281 16.4062C96.1206 16.0215 97.1917 15.884 98.2491 16.0055C99.3065 16.127 100.319 16.5038 101.198 17.1036C102.077 17.7033 102.797 18.508 103.296 19.4481C103.796 20.3882 104.058 21.4356 104.062 22.5ZM98.4375 22.5C98.4382 22.3469 98.4015 22.1959 98.3304 22.0602C98.2593 21.9246 98.1561 21.8084 98.0297 21.7219C97.9052 21.6337 97.7604 21.5784 97.6087 21.5612C97.4571 21.544 97.3036 21.5654 97.1625 21.6234C90.1453 24.375 75.9844 28.9219 60 28.9219C44.0156 28.9219 29.8547 24.375 22.8375 21.6281C22.6958 21.573 22.5428 21.5531 22.3918 21.5703C22.2407 21.5874 22.096 21.6411 21.9703 21.7266C21.8446 21.8126 21.7418 21.9281 21.6707 22.0628C21.5997 22.1976 21.5625 22.3476 21.5625 22.5V48.6375C21.5625 80.2359 38.8078 105.937 60 105.937C81.1922 105.937 98.4375 80.2359 98.4375 48.6469V22.5Z" fill="#5A90F8"/>
</svg>
